<svg xmlns="http://www.w3.org/2000/svg" width="163.208" height="26.058" viewBox="0 0 163.208 26.058">
  <g id="グループ_2761" data-name="グループ 2761" transform="translate(1212 -460)">
    <g id="グループ_2760" data-name="グループ 2760" transform="translate(-1212 460)">
      <g id="グループ_2753" data-name="グループ 2753">
        <g id="グループ_2752" data-name="グループ 2752">
          <path id="パス_11356" data-name="パス 11356" d="M198.291,332.481h3.781a25.5,25.5,0,0,1,4.951.31,3.884,3.884,0,0,1,1.962,1.016,3.127,3.127,0,0,1,.84,1.574,21.912,21.912,0,0,1,.168,3.408v6.264a13.426,13.426,0,0,1-.246,3.22,2.408,2.408,0,0,1-.858,1.27,3.715,3.715,0,0,1-1.512.641,14.834,14.834,0,0,1-2.713.182h-6.373Zm5.053,3.06v11.765q1.092,0,1.345-.4a5.472,5.472,0,0,0,.252-2.193v-6.948a8.6,8.6,0,0,0-.084-1.558.745.745,0,0,0-.384-.5A2.685,2.685,0,0,0,203.344,335.541Z" transform="translate(-198.291 -332.481)" fill="#fff"/>
          <path id="パス_11357" data-name="パス 11357" d="M248.918,332.481v11.953a19.089,19.089,0,0,1-.144,2.856,3.741,3.741,0,0,1-.852,1.69,4.4,4.4,0,0,1-1.866,1.315,7.567,7.567,0,0,1-2.731.447,8.258,8.258,0,0,1-3.072-.53,4.6,4.6,0,0,1-1.992-1.381,3.657,3.657,0,0,1-.78-1.8q-.12-.944-.12-3.971V332.481h5.053v13.412a4.874,4.874,0,0,0,.138,1.5.543.543,0,0,0,.558.326.587.587,0,0,0,.618-.359,6.172,6.172,0,0,0,.138-1.7V332.481Z" transform="translate(-223.846 -332.481)" fill="#fff"/>
          <path id="パス_11358" data-name="パス 11358" d="M287.711,332.481v17.886h-4.429l-2.628-8.131v8.131h-4.225V332.481h4.225l2.832,8.054v-8.054Z" transform="translate(-249.401 -332.481)" fill="#fff"/>
          <path id="パス_11359" data-name="パス 11359" d="M314.908,332.481h3.781a25.5,25.5,0,0,1,4.951.31,3.884,3.884,0,0,1,1.962,1.016,3.122,3.122,0,0,1,.84,1.574,21.912,21.912,0,0,1,.168,3.408v6.264a13.423,13.423,0,0,1-.246,3.22,2.4,2.4,0,0,1-.858,1.27,3.713,3.713,0,0,1-1.512.641,14.831,14.831,0,0,1-2.713.182h-6.373Zm5.053,3.06v11.765q1.092,0,1.344-.4a5.455,5.455,0,0,0,.253-2.193v-6.948a8.589,8.589,0,0,0-.084-1.558.745.745,0,0,0-.384-.5A2.684,2.684,0,0,0,319.961,335.541Z" transform="translate(-274.57 -332.481)" fill="#fff"/>
          <path id="パス_11360" data-name="パス 11360" d="M354.185,332.481h8.425v3.579h-3.372v3.392h3.156v3.4h-3.156v3.932h3.709v3.58h-8.762Z" transform="translate(-300.261 -332.481)" fill="#fff"/>
          <path id="パス_11361" data-name="パス 11361" d="M383.713,332.481h3.577a29.66,29.66,0,0,1,4.843.254,3.353,3.353,0,0,1,2.064,1.3,5.517,5.517,0,0,1,.8,3.331,4.859,4.859,0,0,1-.564,2.806,3.081,3.081,0,0,1-2.22.862,3.918,3.918,0,0,1,2.016.917,2.683,2.683,0,0,1,.642,1.055,15.4,15.4,0,0,1,.126,2.646v4.717H390.3v-5.944a3.81,3.81,0,0,0-.246-1.779q-.246-.342-1.291-.342v8.065h-5.053Zm5.053,3.06v3.977a2.385,2.385,0,0,0,1.194-.216q.342-.215.342-1.4v-.983a1.411,1.411,0,0,0-.33-1.116A2,2,0,0,0,388.766,335.541Z" transform="translate(-319.576 -332.481)" fill="#fff"/>
        </g>
      </g>
      <g id="グループ_2759" data-name="グループ 2759" transform="translate(83.699)">
        <g id="グループ_2755" data-name="グループ 2755" transform="translate(0)">
          <g id="グループ_2754" data-name="グループ 2754">
            <path id="パス_11362" data-name="パス 11362" d="M210.988,389.229v17.886H206.58l-.006-12.075-1.755,12.075h-3.127l-1.851-11.8-.006,11.8h-4.409V389.229h6.526q.291,1.613.6,3.8l.716,4.549,1.159-8.352Z" transform="translate(-195.427 -389.229)" fill="#fff"/>
            <path id="パス_11363" data-name="パス 11363" d="M251.311,389.229v17.886h-5.043V389.229Z" transform="translate(-228.682 -389.229)" fill="#fff"/>
            <path id="パス_11364" data-name="パス 11364" d="M266.7,389.229h8.541v3.579h-3.5V396.2h3.115v3.4h-3.115v7.512H266.7Z" transform="translate(-242.047 -389.229)" fill="#fff"/>
            <path id="パス_11365" data-name="パス 11365" d="M294.926,389.229h8.541v3.579h-3.5V396.2h3.114v3.4H299.97v7.512h-5.044Z" transform="translate(-260.509 -389.229)" fill="#fff"/>
            <path id="パス_11366" data-name="パス 11366" d="M328.195,389.229v14.306h3.067v3.579h-8.11V389.229Z" transform="translate(-278.971 -389.229)" fill="#fff"/>
            <path id="パス_11367" data-name="パス 11367" d="M355.174,389.229v17.886h-5.043V389.229Z" transform="translate(-296.619 -389.229)" fill="#fff"/>
            <path id="パス_11368" data-name="パス 11368" d="M381.824,389.229v17.886H377.4l-2.623-8.131v8.131h-4.217V389.229h4.217l2.827,8.054v-8.054Z" transform="translate(-309.984 -389.229)" fill="#fff"/>
            <path id="パス_11369" data-name="パス 11369" d="M410.555,430.813v1.6a5.609,5.609,0,0,1-.323,2.066,3.072,3.072,0,0,1-1.12,1.37,4.512,4.512,0,0,1-1.8.751V435.32a1.376,1.376,0,0,0,.815-1.005h-.815v-3.5Z" transform="translate(-334.019 -416.429)" fill="#fff"/>
          </g>
        </g>
        <g id="グループ_2757" data-name="グループ 2757" transform="translate(72.707 0.03)">
          <g id="グループ_2756" data-name="グループ 2756">
            <path id="パス_11370" data-name="パス 11370" d="M412.549,391.336h-6.528v-2.02h6.528Z" transform="translate(-405.884 -389.316)" fill="#fff"/>
            <path id="パス_11371" data-name="パス 11371" d="M412.549,402.011h-6.528v-1.77l2.968-1.051h-2.968V397.5h6.528v1.689l-2.939,1.132h2.939Z" transform="translate(-405.884 -394.67)" fill="#fff"/>
            <path id="パス_11372" data-name="パス 11372" d="M409.448,417.492v-2.02h1.134a1.715,1.715,0,0,0,.617-.065c.082-.043.123-.138.123-.285,0-.166-.05-.272-.149-.317a1.918,1.918,0,0,0-.645-.067H407.5a1.79,1.79,0,0,0-.621.067.3.3,0,0,0-.145.3.293.293,0,0,0,.145.3,2.022,2.022,0,0,0,.684.07h.82v2.02h-.254a4.25,4.25,0,0,1-1.438-.171,1.566,1.566,0,0,1-.743-.753,2.963,2.963,0,0,1-.319-1.437,3.453,3.453,0,0,1,.27-1.464,1.405,1.405,0,0,1,.748-.763,4.167,4.167,0,0,1,1.438-.187h1.907a7.088,7.088,0,0,1,1.058.058,1.371,1.371,0,0,1,.68.342,1.908,1.908,0,0,1,.514.792,3.344,3.344,0,0,1,.187,1.164,3.284,3.284,0,0,1-.29,1.473,1.5,1.5,0,0,1-.723.763,3.7,3.7,0,0,1-1.347.182Z" transform="translate(-405.625 -404.623)" fill="#fff"/>
          </g>
        </g>
      </g>
    </g>
    <g id="グループ_2758" data-name="グループ 2758" transform="translate(-1167.846 482.714)">
      <path id="パス_11373" data-name="パス 11373" d="M195.886,453.85v-3.265h1.037a1.067,1.067,0,0,1,.746.253.866.866,0,0,1,.278.677.907.907,0,0,1-.143.5.818.818,0,0,1-.391.318,1.985,1.985,0,0,1-.711.1h-.346v1.414Zm.955-2.849h-.484v1.02h.512a.649.649,0,0,0,.44-.134.482.482,0,0,0,.155-.384Q197.463,451,196.841,451Z" transform="translate(-195.886 -450.543)" fill="#fff"/>
      <path id="パス_11374" data-name="パス 11374" d="M211.7,450.545h.329l1.466,3.278h-.479l-.435-.966H211.18l-.408.966h-.481Zm.687,1.9-.527-1.181-.489,1.181Z" transform="translate(-205.308 -450.517)" fill="#fff"/>
      <path id="パス_11375" data-name="パス 11375" d="M229.918,453.85v-3.265h1.037a1.068,1.068,0,0,1,.746.253.866.866,0,0,1,.278.677.9.9,0,0,1-.143.5.816.816,0,0,1-.391.318,1.987,1.987,0,0,1-.712.1h-.346v1.414Zm.955-2.849h-.485v1.02h.513a.649.649,0,0,0,.44-.134.482.482,0,0,0,.155-.384Q231.495,451,230.873,451Z" transform="translate(-218.146 -450.543)" fill="#fff"/>
      <path id="パス_11376" data-name="パス 11376" d="M246.474,450.6h1.853v.415h-1.385v.994h1.338v.417h-1.338v1.013h1.429v.415h-1.9Z" transform="translate(-228.976 -450.552)" fill="#fff"/>
      <path id="パス_11377" data-name="パス 11377" d="M262.861,453.859V450.6h.819a1.184,1.184,0,0,1,.787.245.821.821,0,0,1,.292.663.816.816,0,0,1-.552.8,1.422,1.422,0,0,1,.306.28,5.514,5.514,0,0,1,.421.618q.171.278.274.418l.173.233h-.557l-.143-.215c0-.008-.014-.021-.028-.039l-.091-.129-.145-.238-.156-.255a2.569,2.569,0,0,0-.266-.32,1.03,1.03,0,0,0-.218-.171.745.745,0,0,0-.327-.052h-.122v1.419Zm.608-2.863h-.14v1.029h.178a1.323,1.323,0,0,0,.488-.061.454.454,0,0,0,.206-.183.532.532,0,0,0,.074-.279.5.5,0,0,0-.082-.279.434.434,0,0,0-.23-.176A1.649,1.649,0,0,0,263.469,451Z" transform="translate(-239.694 -450.552)" fill="#fff"/>
      <path id="パス_11378" data-name="パス 11378" d="M296.454,453.024v.513a2.45,2.45,0,0,1-1.189.28,1.835,1.835,0,0,1-.929-.22,1.617,1.617,0,0,1-.6-.6,1.639,1.639,0,0,1-.222-.833,1.588,1.588,0,0,1,.509-1.2,1.748,1.748,0,0,1,1.255-.485,2.947,2.947,0,0,1,1.144.268v.5a2.256,2.256,0,0,0-1.12-.327,1.3,1.3,0,0,0-.933.354,1.246,1.246,0,0,0-.006,1.768,1.3,1.3,0,0,0,.934.346A2.122,2.122,0,0,0,296.454,453.024Z" transform="translate(-259.743 -450.473)" fill="#fff"/>
      <path id="パス_11379" data-name="パス 11379" d="M314.434,450.464a1.759,1.759,0,0,1,1.262.479,1.585,1.585,0,0,1,.5,1.2,1.56,1.56,0,0,1-.508,1.194,1.812,1.812,0,0,1-1.283.473,1.709,1.709,0,0,1-1.231-.473,1.574,1.574,0,0,1-.492-1.184,1.607,1.607,0,0,1,.5-1.209A1.729,1.729,0,0,1,314.434,450.464Zm.019.443a1.269,1.269,0,0,0-.922.35,1.191,1.191,0,0,0-.361.894,1.169,1.169,0,0,0,.362.877,1.347,1.347,0,0,0,1.82-.007,1.193,1.193,0,0,0,.366-.889,1.165,1.165,0,0,0-.366-.871A1.245,1.245,0,0,0,314.452,450.907Z" transform="translate(-272.284 -450.464)" fill="#fff"/>
      <path id="パス_11380" data-name="パス 11380" d="M336.51,450.6h.437v3.26h-.47v-2.536l-1,1.26h-.087l-1.017-1.26v2.536H333.9V450.6h.443l1.086,1.339Z" transform="translate(-286.162 -450.552)" fill="#fff"/>
      <path id="パス_11381" data-name="パス 11381" d="M354.089,453.85v-3.265h1.036a1.067,1.067,0,0,1,.746.253.867.867,0,0,1,.279.677.907.907,0,0,1-.143.5.82.82,0,0,1-.391.318,1.987,1.987,0,0,1-.712.1h-.346v1.414Zm.955-2.849h-.485v1.02h.513a.65.65,0,0,0,.44-.134.481.481,0,0,0,.154-.384Q355.666,451,355.044,451Z" transform="translate(-299.367 -450.543)" fill="#fff"/>
      <path id="パス_11382" data-name="パス 11382" d="M369.9,450.545h.329l1.465,3.278h-.479l-.436-.966h-1.395l-.408.966h-.481Zm.687,1.9-.527-1.181-.489,1.181Z" transform="translate(-308.789 -450.517)" fill="#fff"/>
      <path id="パス_11383" data-name="パス 11383" d="M390.819,450.6h.444v3.26h-.4l-2.185-2.511v2.511h-.44V450.6h.379l2.2,2.532Z" transform="translate(-321.702 -450.552)" fill="#fff"/>
      <path id="パス_11384" data-name="パス 11384" d="M409.716,450.6h.568l-1.207,1.535v1.724h-.48v-1.724L407.39,450.6h.564l.875,1.124Z" transform="translate(-334.231 -450.552)" fill="#fff"/>
    </g>
  </g>
</svg>
